<svg width="56" height="56" viewBox="0 0 56 56" fill="none" xmlns="http://www.w3.org/2000/svg">
<g filter="url(#filter0_d_1_496)">
<path d="M51.5978 36.2327C51.6108 36.1889 51.6196 36.1444 51.625 36.099V11.3924C51.6229 11.2806 51.6008 11.1696 51.5594 11.0658C51.5481 11.0364 51.5347 11.0078 51.5201 10.98C51.4837 10.9052 51.4377 10.8359 51.3826 10.7737C51.3646 10.7539 51.35 10.7312 51.3303 10.7123V10.7127C51.2572 10.6408 51.1731 10.582 51.0812 10.5375L28.5164 0.087001C28.2682 -0.0290003 27.9818 -0.0290003 27.7336 0.087001L5.16879 10.5375C5.07684 10.582 4.99283 10.6408 4.91968 10.7127C4.90004 10.7316 4.88499 10.7543 4.86743 10.7741V10.7737C4.81226 10.8359 4.76628 10.9052 4.72991 10.98C4.71528 11.0078 4.70191 11.0364 4.69062 11.0658C4.64924 11.1696 4.62709 11.2806 4.625 11.3924V36.099C4.63043 36.1444 4.63921 36.1889 4.65217 36.2327C4.65802 36.3045 4.67223 36.3751 4.69438 36.4436C4.7203 36.4979 4.75165 36.5491 4.78801 36.5971C4.81643 36.65 4.84987 36.7005 4.88791 36.7467C4.94058 36.7954 4.99868 36.8383 5.06137 36.874C5.09523 36.903 5.13159 36.9299 5.16963 36.9539L27.7344 47.4043H27.7478C27.9877 47.5149 28.264 47.5149 28.5043 47.4043H28.5173L51.082 36.9539C51.1201 36.9299 51.1564 36.903 51.1907 36.874C51.253 36.8383 51.3111 36.7954 51.3638 36.7467C51.4022 36.7005 51.4356 36.65 51.4641 36.5971C51.5 36.5491 51.5318 36.4979 51.5577 36.4436C51.579 36.3751 51.5924 36.3041 51.5978 36.2327H51.5978ZM6.49933 12.8635L13.6777 16.1877V23.6624C13.6777 24.0298 13.8909 24.3635 14.2228 24.5173L18.9041 26.6827C19.1938 26.8168 19.532 26.7933 19.8007 26.6197C20.0695 26.4465 20.2321 26.1477 20.2316 25.8266V19.2269L27.191 22.4439V45.0761L6.49879 35.4956L6.49933 12.8635ZM39.437 7.22673L19.2658 16.6848L16.8399 15.5617L37.0121 6.10362L39.437 7.22673ZM15.5528 17.0547L18.3617 18.3547V24.3579L15.5528 23.0588V17.0547ZM29.063 22.4439L49.7552 12.8635V35.4956L29.063 45.076V22.4439ZM28.1267 20.8039L21.4792 17.726L41.6738 8.25568L48.4506 11.3928L28.1267 20.8039ZM28.1267 1.98283L34.7901 5.06788L14.5955 14.5387L7.80294 11.3931L28.1267 1.98283ZM19.0148 34.8863C19.1189 34.6593 19.3082 34.4832 19.5411 34.3966C19.7743 34.31 20.0318 34.3206 20.2575 34.4248L24.9606 36.6024H24.9601C25.1909 36.7037 25.371 36.894 25.4605 37.1307C25.5499 37.3669 25.5407 37.6296 25.4358 37.8595C25.3305 38.089 25.1374 38.2663 24.9008 38.3517C24.6638 38.437 24.403 38.4227 24.1764 38.3122L19.4733 36.1346H19.4738C19.0044 35.9173 18.7991 35.3583 19.0148 34.8862V34.8863ZM25.4179 41.3893H25.4183C25.2018 41.8613 24.6463 42.0677 24.1765 41.8504L19.4734 39.6728H19.4738C19.004 39.4538 18.7996 38.8936 19.0174 38.4211C19.2352 37.9487 19.7923 37.7432 20.2622 37.9621L24.9653 40.1397C25.433 40.3595 25.6357 40.9181 25.4184 41.3892L25.4179 41.3893ZM48.4556 31.1128C48.0928 31.4831 47.5001 31.4877 47.1319 31.1233L46.9053 30.9002V34.3382C46.9053 34.8581 46.4861 35.2797 45.969 35.2797C45.452 35.2797 45.0328 34.8581 45.0328 34.3382V31.6079L44.7293 32.0383C44.4267 32.4511 43.8516 32.5444 43.4352 32.2485C43.0189 31.9526 42.9144 31.3763 43.2003 30.9518L45.2042 28.1084C45.22 28.0866 45.2426 28.0765 45.2593 28.0567C45.276 28.037 45.2827 28.0113 45.3007 27.9928H45.3003C45.3304 27.9689 45.3617 27.9466 45.3939 27.926C45.4395 27.8899 45.488 27.8583 45.5394 27.8319C45.5619 27.8205 45.5787 27.8008 45.6029 27.7903C45.6272 27.7797 45.6715 27.7789 45.7049 27.7684V27.7688C45.7634 27.7507 45.8236 27.7386 45.8846 27.7318C45.9097 27.7318 45.9331 27.7188 45.9586 27.7175H45.9632V27.718C45.995 27.7226 46.0263 27.7293 46.0568 27.7377C46.1166 27.7423 46.1755 27.7537 46.2328 27.7705C46.2608 27.7755 46.2884 27.7823 46.3151 27.7903C46.3498 27.8083 46.3829 27.8289 46.4146 27.8516C46.4435 27.8684 46.4765 27.8722 46.5037 27.8911C46.5308 27.91 46.5363 27.9306 46.5559 27.9475C46.5776 27.9601 46.5985 27.9739 46.6186 27.9891L46.624 27.9937L48.4435 29.7816C48.8126 30.1456 48.818 30.7416 48.4556 31.1127L48.4556 31.1128Z" fill="white"/>
</g>
<defs>
<filter id="filter0_d_1_496" x="0.625" y="0" width="55" height="55.4873" filterUnits="userSpaceOnUse" color-interpolation-filters="sRGB">
<feFlood flood-opacity="0" result="BackgroundImageFix"/>
<feColorMatrix in="SourceAlpha" type="matrix" values="0 0 0 0 0 0 0 0 0 0 0 0 0 0 0 0 0 0 127 0" result="hardAlpha"/>
<feOffset dy="4"/>
<feGaussianBlur stdDeviation="2"/>
<feComposite in2="hardAlpha" operator="out"/>
<feColorMatrix type="matrix" values="0 0 0 0 0 0 0 0 0 0 0 0 0 0 0 0 0 0 0.25 0"/>
<feBlend mode="normal" in2="BackgroundImageFix" result="effect1_dropShadow_1_496"/>
<feBlend mode="normal" in="SourceGraphic" in2="effect1_dropShadow_1_496" result="shape"/>
</filter>
</defs>
</svg>
