<svg width="26" height="27" viewBox="0 0 26 27" fill="none" xmlns="http://www.w3.org/2000/svg">
<path d="M19 1.46289H7C3.68629 1.46289 1 4.16412 1 7.49626V19.563C1 22.8951 3.68629 25.5964 7 25.5964H19C22.3137 25.5964 25 22.8951 25 19.563V7.49626C25 4.16412 22.3137 1.46289 19 1.46289Z" stroke="#383838" stroke-width="2" stroke-linecap="round" stroke-linejoin="round"/>
<path d="M17.8008 12.7692C17.9489 13.7735 17.7783 14.7991 17.3133 15.7002C16.8483 16.6014 16.1125 17.3321 15.2107 17.7886C14.3089 18.245 13.2869 18.4039 12.2901 18.2426C11.2933 18.0813 10.3725 17.6081 9.65858 16.8902C8.94467 16.1723 8.47405 15.2464 8.31365 14.244C8.15326 13.2417 8.31125 12.214 8.76516 11.3072C9.21908 10.4003 9.94579 9.66051 10.842 9.19293C11.7381 8.72534 12.7581 8.55381 13.7568 8.70273C14.7755 8.85463 15.7186 9.33196 16.4468 10.0642C17.175 10.7965 17.6497 11.7448 17.8008 12.7692Z" stroke="#383838" stroke-width="2" stroke-linecap="round" stroke-linejoin="round"/>
<path d="M19.6 6.89294H19.6127" stroke="#383838" stroke-width="2" stroke-linecap="round" stroke-linejoin="round"/>
</svg>
