<svg width="37" height="45" viewBox="0 0 37 45" fill="none" xmlns="http://www.w3.org/2000/svg">
<path d="M35.625 18.8704C35.625 32.1908 18.625 43.6083 18.625 43.6083C18.625 43.6083 1.625 32.1908 1.625 18.8704C1.625 14.3282 3.41607 9.9721 6.60418 6.7603C9.7923 3.54851 14.1163 1.74414 18.625 1.74414C23.1337 1.74414 27.4577 3.54851 30.6458 6.7603C33.8339 9.9721 35.625 14.3282 35.625 18.8704Z" stroke="white" stroke-width="2" stroke-linecap="round" stroke-linejoin="round"/>
<path d="M18.9714 24.7695C22.0372 24.7695 24.5225 22.1142 24.5225 18.8387C24.5225 15.5632 22.0372 12.908 18.9714 12.908C15.9057 12.908 13.4204 15.5632 13.4204 18.8387C13.4204 22.1142 15.9057 24.7695 18.9714 24.7695Z" stroke="white" stroke-width="2" stroke-linecap="round" stroke-linejoin="round"/>
</svg>
